<svg version="1.2" baseProfile="tiny-ps" xmlns="http://www.w3.org/2000/svg" viewBox="0 0 70 70" width="70" height="70">
	<title>LOGO AVIATTO-svg</title>
	<style>
		tspan { white-space:pre }
		.shp0 { fill: #072040 } 
		.shp1 { fill: #8c0d0d } 
		.shp2 { fill: #ff6700 } 
	</style>
	<path id="Capa 1" class="shp0" d="M1.26 51.77C1.26 51.77 29.14 18.04 43.79 16.37L38.47 8.08C38.47 8.08 33.67 2.1 28.36 8.98L1.26 51.77Z" />
	<path id="Capa 2" class="shp1" d="M33.29 30.37C33.29 30.37 49.36 31.4 66.34 51.9L47.81 22.86C47.81 22.86 49.62 16.88 59.99 14.04C59.99 14.04 39.9 15.58 33.29 30.37Z" />
	<path id="Capa 3" class="shp2" d="M61.66 13.54L61.55 14.85C61.55 14.85 61.64 15.11 61.8 14.88L62.44 13.83L64.38 13.51L64.16 16.4C64.16 16.4 64.08 16.89 64.3 16.89C64.3 16.89 64.53 17.02 64.69 16.54L66.21 13.26L68.54 12.91C68.54 12.91 69.1 12.28 68.29 11.89L66.03 12.42L63.39 9.77C63.39 9.77 63.2 9.51 63 9.7C63 9.7 62.88 9.84 63 9.98L64.3 12.77L62.33 13.26L61.13 12.27C61.13 12.27 60.88 12.21 60.99 12.45L61.66 13.54Z" />
	<path id="AVIATTO" fill-rule="evenodd" class="shp0" d="M16.16 57.71L15.89 57.05L12.73 57.05L11.76 59.21L11.14 59.21L14.64 51.37L15.18 51.37L17.84 57.71C18.12 58.41 18.54 58.84 19.07 58.9L19.07 59.2C18.94 59.23 18.68 59.26 18.5 59.26C17.72 59.26 16.73 59.07 16.16 57.71ZM15.66 56.51L14.36 53.41L12.98 56.51L15.66 56.51ZM18.7 52.76C18.32 51.87 18 51.57 17.53 51.51L17.53 51.28C17.59 51.28 17.92 51.25 18.03 51.25C18.85 51.25 19.81 51.41 20.38 52.76L22.25 57.2L24.76 51.37L25.37 51.37L21.95 59.33L21.47 59.33L18.7 52.76ZM26.33 57.66L26.33 51.37L27.87 51.37L27.87 57.66C27.87 58.38 27.99 58.85 28.7 58.85L28.82 58.85L28.82 59.21L27.4 59.21C26.57 59.21 26.33 58.86 26.33 57.66ZM34.12 57.71L33.85 57.05L30.69 57.05L29.71 59.21L29.1 59.21L32.6 51.37L33.13 51.37L35.79 57.71C36.08 58.41 36.49 58.84 37.03 58.9L37.03 59.2C36.9 59.23 36.64 59.26 36.46 59.26C35.67 59.26 34.69 59.07 34.12 57.71ZM33.62 56.51L32.31 53.41L30.94 56.51L33.62 56.51ZM38.75 51.9L37.91 51.9C37.06 51.9 36.54 52.27 36.54 53.33L36.19 53.33L36.19 52.32C36.19 51.84 36.38 51.37 37.19 51.37L42.78 51.37L42.78 51.9L40.29 51.9L40.29 59.21L38.75 59.21L38.75 51.9ZM45.58 51.9L44.74 51.9C43.89 51.9 43.37 52.27 43.37 53.33L43.01 53.33L43.01 52.32C43.01 51.84 43.2 51.37 44.02 51.37L49.6 51.37L49.6 51.9L47.12 51.9L47.12 59.21L45.58 59.21L45.58 51.9ZM49.62 55.29C49.62 52.95 51.17 51.13 53.54 51.13C55.9 51.13 57.44 52.95 57.44 55.29C57.44 57.63 55.9 59.45 53.54 59.45C51.17 59.45 49.62 57.63 49.62 55.29ZM55.8 55.29C55.8 52.97 54.97 51.67 53.54 51.67C52.1 51.67 51.28 52.97 51.28 55.29C51.28 57.6 52.1 58.91 53.54 58.91C54.97 58.91 55.8 57.6 55.8 55.29Z" />
</svg>