<svg version="1.2" baseProfile="tiny-ps" xmlns="http://www.w3.org/2000/svg" viewBox="0 0 1667 1667" width="1667" height="1667">
	<title>LOGO AVIATTO</title>
	<style>
		tspan { white-space:pre }
		.shp0 { fill: #072040 } 
		.shp1 { fill: #8c0d0d } 
		.shp2 { fill: #ff6700 } 
	</style>
	<path id="Capa 1" class="shp0" d="M30.07 1232.78C30.07 1232.78 693.86 429.71 1042.74 389.91L916.16 192.32C916.16 192.32 801.92 49.96 675.34 213.93L30.07 1232.78Z" />
	<path id="Capa 2" class="shp1" d="M792.66 723.35C792.66 723.35 1175.5 747.72 1579.95 1235.86L1138.45 544.28C1138.45 544.28 1181.67 401.93 1428.67 334.34C1428.67 334.34 950.12 371.05 792.66 723.35Z" />
	<path id="Capa 3" class="shp2" d="M1468.4 322.53L1465.88 353.6C1465.88 353.6 1467.84 359.73 1471.76 354.44L1486.87 329.25L1533.05 321.69L1528.02 390.54C1528.02 390.54 1526.06 402.27 1531.37 402.3C1531.37 402.3 1536.69 405.35 1540.61 393.9L1576.71 315.81L1632.13 307.42C1632.13 307.42 1645.56 292.55 1626.25 283.07L1572.52 295.66L1509.54 232.69C1509.54 232.69 1505.07 226.5 1500.31 231.01C1500.31 231.01 1497.51 234.34 1500.31 237.73L1531.37 304.06L1484.35 315.81L1455.81 292.31C1455.81 292.31 1449.93 290.88 1452.45 296.5L1468.4 322.53Z" />
	<path id="AVIATTO" fill="#072040" aria-label="AVIATTO"  d="M440.61 1411.13C444.85 1411.13 451.07 1410.57 454.18 1409.72L454.18 1402.65C441.46 1401.23 431.56 1391.05 424.77 1374.37L361.42 1223.34L348.69 1223.34L265.26 1410L279.97 1410L303.16 1358.53L378.39 1358.53L384.89 1374.37C398.47 1406.61 421.94 1411.13 440.61 1411.13ZM309.1 1345.8L341.91 1271.99L373.02 1345.8ZM511.31 1412.83L522.62 1412.83L604.08 1223.34L589.65 1223.34L529.98 1362.2L485.29 1256.43C471.72 1224.19 448.81 1220.51 429.3 1220.51C426.75 1220.51 418.83 1221.08 417.42 1221.08L417.42 1226.74C428.73 1228.15 436.37 1235.22 445.42 1256.43ZM652.44 1410L686.37 1410L686.37 1401.52L683.55 1401.52C666.58 1401.52 663.75 1390.2 663.75 1373.23L663.75 1223.34L626.98 1223.34L626.98 1373.23C626.98 1401.8 632.64 1410 652.44 1410ZM868.22 1411.13C872.47 1411.13 878.69 1410.57 881.8 1409.72L881.8 1402.65C869.07 1401.23 859.17 1391.05 852.39 1374.37L789.04 1223.34L776.31 1223.34L692.88 1410L707.59 1410L730.78 1358.53L806.01 1358.53L812.51 1374.37C826.09 1406.61 849.56 1411.13 868.22 1411.13ZM736.72 1345.8L769.52 1271.99L800.63 1345.8ZM922.81 1410L959.57 1410L959.57 1236.07L1018.68 1236.07L1018.68 1223.34L885.76 1223.34C866.25 1223.34 861.72 1234.65 861.72 1245.97L861.72 1270.01L870.2 1270.01C870.2 1244.84 882.65 1236.07 902.73 1236.07L922.81 1236.07ZM1085.43 1410L1122.19 1410L1122.19 1236.07L1181.3 1236.07L1181.3 1223.34L1048.38 1223.34C1028.86 1223.34 1024.34 1234.65 1024.34 1245.97L1024.34 1270.01L1032.82 1270.01C1032.82 1244.84 1045.27 1236.07 1065.35 1236.07L1085.43 1236.07ZM1274.91 1415.66C1331.19 1415.66 1367.96 1372.39 1367.96 1316.67C1367.96 1260.96 1331.19 1217.69 1274.91 1217.69C1218.63 1217.69 1181.58 1260.96 1181.58 1316.67C1181.58 1372.39 1218.63 1415.66 1274.91 1415.66ZM1274.91 1402.93C1240.69 1402.93 1221.18 1371.82 1221.18 1316.67C1221.18 1261.52 1240.69 1230.41 1274.91 1230.41C1309.13 1230.41 1328.93 1261.52 1328.93 1316.67C1328.93 1371.82 1309.13 1402.93 1274.91 1402.93Z" />
</svg>